# xmcd CD database file
#
# Track frame offsets:
#	150
#	8892
#	20133
#	31193
#	48789
#	67711
#	76919
#	91869
#	104604
#	113417
#	129131
#	142415
#
# Disc length: 2039 seconds
#
# Revision: 0
# Processed by: cddbd v1.5.1PL0 Copyright (c) Steve Scherf et al.
# Submitted via: CDex 1.51
#
DISCID=8c07f50c
DTITLE=Janette and Joe Carter - Last of their Kind
DYEAR=2004
DGENRE=Country
TTITLE0=A Few More Years
TTITLE1=Stern Old Bachelor
TTITLE2=Close of a Day
TTITLE3=Through the Eyes of an Eagle
TTITLE4=The Poor Orphan Child
TTITLE5=If Only I Were a Child Again
TTITLE6=Little Darling Pal of Mine
TTITLE7=Pole it Reba
TTITLE8=Kitty Waltz
TTITLE9=Morning Sunlight
TTITLE10=Right at Home
TTITLE11=Living with Memories
EXTD=YEAR: 2004
EXTT0=
EXTT1=
EXTT2=
EXTT3=
EXTT4=
EXTT5=
EXTT6=
EXTT7=
EXTT8=
EXTT9=
EXTT10=
EXTT11=
PLAYORDER=
